<svg width="241" height="40" viewBox="0 0 241 40" fill="none" xmlns="http://www.w3.org/2000/svg">
<path d="M66.832 24.816C66.832 25.9573 66.4267 26.7733 65.616 27.264C64.8053 27.7547 63.776 28 62.528 28H59.296V16.96H62.32C63.4933 16.96 64.4587 17.1787 65.216 17.616C65.9733 18.0427 66.352 18.7573 66.352 19.76C66.352 20.4 66.1547 20.928 65.76 21.344C65.376 21.7493 64.8907 22.016 64.304 22.144C65.0293 22.272 65.632 22.544 66.112 22.96C66.592 23.3653 66.832 23.984 66.832 24.816ZM64.464 19.904C64.464 19.36 64.2933 18.9653 63.952 18.72C63.6213 18.4747 63.1307 18.352 62.48 18.352H61.152V21.536H62.592C63.2213 21.536 63.6907 21.408 64 21.152C64.3093 20.8853 64.464 20.4693 64.464 19.904ZM64.896 24.816C64.896 24.1227 64.704 23.6373 64.32 23.36C63.936 23.072 63.4027 22.928 62.72 22.928H61.152V26.56H62.656C64.1493 26.56 64.896 25.9787 64.896 24.816ZM70.3938 25.344L69.6258 28H67.7218L71.2418 16.96H73.5458L77.0658 28H75.0978L74.3298 25.344H70.3938ZM73.9458 23.904L72.3618 18.4L70.7778 23.904H73.9458ZM85.9235 20.16C85.9235 20.928 85.6942 21.568 85.2355 22.08C84.7768 22.592 84.1688 22.9653 83.4115 23.2L86.5475 28H84.3875L81.6035 23.456H80.4035V28H78.5475V16.96H81.6195C84.4888 16.96 85.9235 18.0267 85.9235 20.16ZM83.9875 20.16C83.9875 19.52 83.8008 19.056 83.4275 18.768C83.0648 18.48 82.4995 18.336 81.7315 18.336H80.4035V22.096H81.7795C82.5048 22.096 83.0542 21.9413 83.4275 21.632C83.8008 21.3227 83.9875 20.832 83.9875 20.16ZM90.4453 21.696H94.4453V23.088H90.4453V26.592H95.3253V28H88.5893V16.96H95.2292L95.0213 18.368H90.4453V21.696ZM115.169 28H113.457L113.201 22.624C113.169 21.92 113.153 21.2427 113.153 20.592C113.153 19.7493 113.169 19.0827 113.201 18.592L111.569 26.048H109.953L108.209 18.592C108.251 19.136 108.273 19.9733 108.273 21.104C108.273 21.7867 108.267 22.2987 108.257 22.64L108.033 28H106.369L106.993 16.96H109.217L110.801 24.352L112.305 16.96H114.545L115.169 28ZM119.227 21.696H123.227V23.088H119.227V26.592H124.107V28H117.371V16.96H124.01L123.803 18.368H119.227V21.696ZM130.868 28H129.012V18.464H125.684V16.96H134.244L134.052 18.464H130.868V28ZM137.55 25.344L136.782 28H134.878L138.398 16.96H140.702L144.222 28H142.254L141.486 25.344H137.55ZM141.102 23.904L139.518 18.4L137.934 23.904H141.102ZM146.264 16.96H148.104V26.448H153.064L152.856 28H146.264V16.96ZM172.315 24.88C172.315 25.5413 172.145 26.1227 171.803 26.624C171.473 27.1253 170.987 27.5147 170.347 27.792C169.718 28.0693 168.966 28.208 168.091 28.208C166.385 28.208 165.03 27.7173 164.027 26.736L165.051 25.6C165.883 26.368 166.897 26.752 168.091 26.752C168.753 26.752 169.297 26.5973 169.723 26.288C170.161 25.9787 170.379 25.5413 170.379 24.976C170.379 24.6453 170.31 24.368 170.171 24.144C170.043 23.92 169.819 23.7227 169.499 23.552C169.179 23.3707 168.721 23.1893 168.123 23.008C166.897 22.6453 165.995 22.2133 165.419 21.712C164.843 21.2107 164.555 20.5493 164.555 19.728C164.555 19.1413 164.715 18.624 165.035 18.176C165.366 17.7173 165.819 17.3653 166.395 17.12C166.971 16.864 167.622 16.736 168.347 16.736C169.83 16.736 171.062 17.1787 172.043 18.064L171.067 19.168C170.31 18.5173 169.441 18.192 168.459 18.192C167.862 18.192 167.377 18.3147 167.003 18.56C166.641 18.8053 166.459 19.1573 166.459 19.616C166.459 19.904 166.534 20.1493 166.683 20.352C166.843 20.5547 167.105 20.7413 167.467 20.912C167.841 21.072 168.363 21.2533 169.035 21.456C170.102 21.776 170.913 22.1867 171.467 22.688C172.033 23.1893 172.315 23.92 172.315 24.88ZM182.117 22.48C182.117 24.2293 181.754 25.6213 181.029 26.656C180.314 27.6907 179.28 28.208 177.925 28.208C176.57 28.208 175.53 27.7013 174.805 26.688C174.09 25.664 173.733 24.2667 173.733 22.496C173.733 20.7467 174.09 19.3493 174.805 18.304C175.53 17.2587 176.57 16.736 177.925 16.736C179.28 16.736 180.314 17.2533 181.029 18.288C181.754 19.312 182.117 20.7093 182.117 22.48ZM180.213 22.48C180.213 21.0293 180.032 19.952 179.669 19.248C179.306 18.544 178.725 18.192 177.925 18.192C177.125 18.192 176.544 18.544 176.181 19.248C175.818 19.952 175.637 21.0347 175.637 22.496C175.637 23.936 175.818 25.008 176.181 25.712C176.554 26.416 177.136 26.768 177.925 26.768C178.725 26.768 179.306 26.416 179.669 25.712C180.032 25.008 180.213 23.9307 180.213 22.48ZM186.607 21.888H190.767V23.296H186.607V28H184.751V16.96H191.535L191.343 18.368H186.607V21.888ZM198.025 28H196.169V18.464H192.84V16.96H201.401L201.209 18.464H198.025V28ZM209.954 28H207.778L206.69 19.824L205.554 28H203.346L201.938 16.96H203.73L204.594 26.208L205.778 18.24H207.682L208.786 26.208L209.81 16.96H211.474L209.954 28ZM214.3 25.344L213.532 28H211.628L215.148 16.96H217.452L220.972 28H219.004L218.236 25.344H214.3ZM217.852 23.904L216.268 18.4L214.684 23.904H217.852ZM229.83 20.16C229.83 20.928 229.6 21.568 229.142 22.08C228.683 22.592 228.075 22.9653 227.318 23.2L230.454 28H228.294L225.51 23.456H224.31V28H222.454V16.96H225.526C228.395 16.96 229.83 18.0267 229.83 20.16ZM227.894 20.16C227.894 19.52 227.707 19.056 227.334 18.768C226.971 18.48 226.406 18.336 225.638 18.336H224.31V22.096H225.686C226.411 22.096 226.96 21.9413 227.334 21.632C227.707 21.3227 227.894 20.832 227.894 20.16ZM234.352 21.696H238.352V23.088H234.352V26.592H239.232V28H232.496V16.96H239.135L238.928 18.368H234.352V21.696Z" fill="#FDFDFF"/>
<path d="M13.92 35.864C11.9147 35.864 10.4213 35.5547 9.44 34.936C8.48 34.3173 8 33.176 8 31.512C8 30.744 8.02133 30.04 8.064 29.4C8.10667 28.76 8.14933 28.1307 8.192 27.512C8.256 26.8933 8.288 26.232 8.288 25.528C8.288 25.1227 8.16 24.7387 7.904 24.376C7.66933 23.992 7.22133 23.6827 6.56 23.448C5.89867 23.2133 4.94933 23.0853 3.712 23.064V21.144C4.94933 21.1227 5.89867 20.9947 6.56 20.76C7.22133 20.5253 7.66933 20.216 7.904 19.832C8.16 19.448 8.288 19.064 8.288 18.68C8.288 17.9973 8.256 17.3467 8.192 16.728C8.14933 16.088 8.10667 15.4373 8.064 14.776C8.02133 14.1147 8 13.4213 8 12.696C8 11.0107 8.48 9.86933 9.44 9.272C10.4213 8.65333 11.9147 8.344 13.92 8.344H16V10.104H14.432C13.408 10.104 12.6187 10.2 12.064 10.392C11.5307 10.5627 11.1573 10.8507 10.944 11.256C10.752 11.64 10.656 12.1733 10.656 12.856C10.656 13.752 10.688 14.6693 10.752 15.608C10.816 16.5467 10.848 17.5067 10.848 18.488C10.848 19.5547 10.624 20.3653 10.176 20.92C9.74933 21.4747 8.97067 21.848 7.84 22.04V22.168C8.97067 22.36 9.74933 22.7333 10.176 23.288C10.624 23.8427 10.848 24.6533 10.848 25.72C10.848 26.7653 10.816 27.736 10.752 28.632C10.688 29.5067 10.656 30.4133 10.656 31.352C10.656 32.0133 10.752 32.5467 10.944 32.952C11.1573 33.3573 11.5307 33.6453 12.064 33.816C12.6187 34.008 13.408 34.104 14.432 34.104H16V35.864H13.92ZM25.5875 20.216C24.7768 20.216 24.0942 19.9387 23.5395 19.384C22.9848 18.8293 22.7075 18.1147 22.7075 17.24C22.7075 16.3653 22.9848 15.6507 23.5395 15.096C24.0942 14.5413 24.7768 14.264 25.5875 14.264C26.4195 14.264 27.1022 14.5413 27.6355 15.096C28.1902 15.6507 28.4675 16.3653 28.4675 17.24C28.4675 18.1147 28.1902 18.8293 27.6355 19.384C27.1022 19.9387 26.4195 20.216 25.5875 20.216ZM23.0275 37.848L22.1635 35.896C23.5502 35.32 24.5742 34.5947 25.2355 33.72C25.9182 32.8453 26.2488 31.7893 26.2275 30.552L25.7155 27.384L27.5715 30.104C27.2942 30.3813 26.9955 30.5733 26.6755 30.68C26.3555 30.7867 26.0355 30.84 25.7155 30.84C25.2035 30.84 24.7342 30.744 24.3075 30.552C23.9022 30.3387 23.5715 30.04 23.3155 29.656C23.0808 29.2507 22.9635 28.7707 22.9635 28.216C22.9635 27.3627 23.2408 26.712 23.7955 26.264C24.3502 25.7947 25.0115 25.56 25.7795 25.56C26.8035 25.56 27.5822 25.9547 28.1155 26.744C28.6488 27.5333 28.9155 28.6213 28.9155 30.008C28.9155 31.928 28.3928 33.5493 27.3475 34.872C26.3235 36.1947 24.8835 37.1867 23.0275 37.848ZM35.175 35.864V34.104H36.743C37.7883 34.104 38.5777 34.008 39.111 33.816C39.6657 33.6453 40.039 33.3573 40.231 32.952C40.4443 32.5467 40.551 32.0133 40.551 31.352C40.551 30.4133 40.519 29.5067 40.455 28.632C40.391 27.736 40.359 26.7653 40.359 25.72C40.359 24.6533 40.5723 23.8427 40.999 23.288C41.447 22.7333 42.2257 22.36 43.335 22.168V22.04C42.2257 21.848 41.447 21.4747 40.999 20.92C40.5723 20.3653 40.359 19.5547 40.359 18.488C40.359 17.5067 40.391 16.5467 40.455 15.608C40.519 14.6693 40.551 13.752 40.551 12.856C40.551 12.1733 40.4443 11.64 40.231 11.256C40.039 10.8507 39.6657 10.5627 39.111 10.392C38.5777 10.2 37.7883 10.104 36.743 10.104H35.175V8.344H37.255C39.2817 8.344 40.775 8.65333 41.735 9.272C42.695 9.86933 43.175 11.0107 43.175 12.696C43.175 13.4213 43.1537 14.1147 43.111 14.776C43.0683 15.4373 43.015 16.088 42.951 16.728C42.9083 17.3467 42.887 17.9973 42.887 18.68C42.887 19.064 43.0043 19.448 43.239 19.832C43.495 20.216 43.9537 20.5253 44.615 20.76C45.2763 20.9947 46.2257 21.1227 47.463 21.144V23.064C46.2257 23.0853 45.2763 23.2133 44.615 23.448C43.9537 23.6827 43.495 23.992 43.239 24.376C43.0043 24.7387 42.887 25.1227 42.887 25.528C42.887 26.232 42.9083 26.8933 42.951 27.512C43.015 28.1307 43.0683 28.76 43.111 29.4C43.1537 30.04 43.175 30.744 43.175 31.512C43.175 33.176 42.695 34.3173 41.735 34.936C40.775 35.5547 39.2817 35.864 37.255 35.864H35.175Z" fill="#008DB9"/>
</svg>
